<?xml version="1.0" encoding="UTF-8" standalone="no"?>
<!DOCTYPE svg PUBLIC "-//W3C//DTD SVG 1.1//EN"
 "http://www.w3.org/Graphics/SVG/1.1/DTD/svg11.dtd">
<!-- Generated by graphviz version 2.40.1 (20161225.0304)
 -->
<!-- Title: Elimination_3 Pages: 1 -->
<svg width="564pt" height="1156pt"
 viewBox="0.00 0.00 564.00 1156.00" xmlns="http://www.w3.org/2000/svg" xmlns:xlink="http://www.w3.org/1999/xlink">
<g id="graph0" class="graph" transform="scale(1 1) rotate(0) translate(4 1152)">
<title>Elimination_3</title>
<polygon fill="#ffffff" stroke="transparent" points="-4,4 -4,-1152 560,-1152 560,4 -4,4"/>
<g id="clust1" class="cluster">
<title>cluster_mainloop1</title>
</g>
<g id="clust2" class="cluster">
<title>cluster_mainloop2</title>
</g>
<g id="clust3" class="cluster">
<title>cluster_mainloop3</title>
</g>
<!-- J&#39;s Bar -->
<g id="node1" class="node">
<title>J&#39;s Bar</title>
<polygon fill="none" stroke="#000000" points="444.7622,-1132 389.2378,-1132 389.2378,-1096 444.7622,-1096 444.7622,-1132"/>
<text text-anchor="middle" x="417" y="-1109.8" font-family="Times,serif" font-size="14.00" fill="#000000">J&#39;s Bar</text>
</g>
<!-- 1F Doctor&#39;s Office -->
<g id="node2" class="node">
<title>1F Doctor&#39;s Office</title>
<polygon fill="none" stroke="#000000" points="478.0088,-1060 355.9912,-1060 355.9912,-1024 478.0088,-1024 478.0088,-1060"/>
<text text-anchor="middle" x="417" y="-1037.8" font-family="Times,serif" font-size="14.00" fill="#000000">1F Doctor&#39;s Office</text>
</g>
<!-- J&#39;s Bar&#45;&#45;1F Doctor&#39;s Office -->
<g id="edge1" class="edge">
<title>J&#39;s Bar&#45;&#45;1F Doctor&#39;s Office</title>
<path fill="none" stroke="#000000" d="M417,-1095.8314C417,-1085 417,-1071.2876 417,-1060.4133"/>
</g>
<!-- Path to Observation Deck -->
<g id="node3" class="node">
<title>Path to Observation Deck</title>
<polygon fill="none" stroke="#000000" points="497.2366,-988 336.7634,-988 336.7634,-952 497.2366,-952 497.2366,-988"/>
<text text-anchor="middle" x="417" y="-965.8" font-family="Times,serif" font-size="14.00" fill="#000000">Path to Observation Deck</text>
</g>
<!-- 1F Doctor&#39;s Office&#45;&#45;Path to Observation Deck -->
<g id="edge2" class="edge">
<title>1F Doctor&#39;s Office&#45;&#45;Path to Observation Deck</title>
<path fill="none" stroke="#000000" d="M417,-1023.8314C417,-1013 417,-999.2876 417,-988.4133"/>
</g>
<!-- 1F Apple Inn Square -->
<g id="node4" class="node">
<title>1F Apple Inn Square</title>
<polygon fill="none" stroke="#000000" points="510.5274,-916 377.4726,-916 377.4726,-880 510.5274,-880 510.5274,-916"/>
<text text-anchor="middle" x="444" y="-893.8" font-family="Times,serif" font-size="14.00" fill="#000000">1F Apple Inn Square</text>
</g>
<!-- Path to Observation Deck&#45;&#45;1F Apple Inn Square -->
<g id="edge3" class="edge">
<title>Path to Observation Deck&#45;&#45;1F Apple Inn Square</title>
<path fill="none" stroke="#000000" d="M437.3023,-951.8314C437.3023,-941 437.3023,-927.2876 437.3023,-916.4133"/>
</g>
<!-- B2F Passage -->
<g id="node19" class="node">
<title>B2F Passage</title>
<polygon fill="none" stroke="#000000" points="467.9348,-628 380.0652,-628 380.0652,-592 467.9348,-592 467.9348,-628"/>
<text text-anchor="middle" x="424" y="-605.8" font-family="Times,serif" font-size="14.00" fill="#000000">B2F Passage</text>
</g>
<!-- Path to Observation Deck&#45;&#45;B2F Passage -->
<g id="edge4" class="edge">
<title>Path to Observation Deck&#45;&#45;B2F Passage</title>
<path fill="none" stroke="#000000" d="M336.8067,-970C327.6155,-970 321.4559,-970 321.4559,-970 321.4559,-970 321.4559,-620 321.4559,-620 321.4559,-620 352.124,-620 379.917,-620"/>
</g>
<!-- 1F R.P.D. Office -->
<g id="node21" class="node">
<title>1F R.P.D. Office</title>
<polygon fill="none" stroke="#000000" points="317.7563,-844 206.2437,-844 206.2437,-808 317.7563,-808 317.7563,-844"/>
<text text-anchor="middle" x="262" y="-821.8" font-family="Times,serif" font-size="14.00" fill="#000000">1F R.P.D. Office</text>
</g>
<!-- Path to Observation Deck&#45;&#45;1F R.P.D. Office -->
<g id="edge5" class="edge">
<title>Path to Observation Deck&#45;&#45;1F R.P.D. Office</title>
<path fill="none" stroke="#000000" d="M362.1805,-951.9589C362.1805,-914.5524 362.1805,-832 362.1805,-832 362.1805,-832 340.7151,-832 317.6565,-832"/>
</g>
<!-- B4F Subway Car -->
<g id="node5" class="node">
<title>B4F Subway Car</title>
<polygon fill="none" stroke="#000000" points="502.4356,-844 389.5644,-844 389.5644,-808 502.4356,-808 502.4356,-844"/>
<text text-anchor="middle" x="446" y="-821.8" font-family="Times,serif" font-size="14.00" fill="#000000">B4F Subway Car</text>
</g>
<!-- 1F Apple Inn Square&#45;&#45;B4F Subway Car -->
<g id="edge6" class="edge">
<title>1F Apple Inn Square&#45;&#45;B4F Subway Car</title>
<path fill="none" stroke="#000000" d="M446,-879.8314C446,-869 446,-855.2876 446,-844.4133"/>
</g>
<!-- Stairwell (Underbelly) -->
<g id="node6" class="node">
<title>Stairwell (Underbelly)</title>
<polygon fill="none" stroke="#000000" points="517.3406,-772 374.6594,-772 374.6594,-736 517.3406,-736 517.3406,-772"/>
<text text-anchor="middle" x="446" y="-749.8" font-family="Times,serif" font-size="14.00" fill="#000000">Stairwell (Underbelly)</text>
</g>
<!-- B4F Subway Car&#45;&#45;Stairwell (Underbelly) -->
<g id="edge7" class="edge">
<title>B4F Subway Car&#45;&#45;Stairwell (Underbelly)</title>
<path fill="none" stroke="#000000" d="M446,-807.8314C446,-797 446,-783.2876 446,-772.4133"/>
</g>
<!-- Show Animals&#39; Board House -->
<g id="node7" class="node">
<title>Show Animals&#39; Board House</title>
<polygon fill="none" stroke="#000000" points="517.4656,-700 336.5344,-700 336.5344,-664 517.4656,-664 517.4656,-700"/>
<text text-anchor="middle" x="427" y="-677.8" font-family="Times,serif" font-size="14.00" fill="#000000">Show Animals&#39; Board House</text>
</g>
<!-- Stairwell (Underbelly)&#45;&#45;Show Animals&#39; Board House -->
<g id="edge8" class="edge">
<title>Stairwell (Underbelly)&#45;&#45;Show Animals&#39; Board House</title>
<path fill="none" stroke="#000000" d="M446,-735.8314C446,-725 446,-711.2876 446,-700.4133"/>
</g>
<!-- Show Animals&#39; Board House&#45;&#45;B2F Passage -->
<g id="edge10" class="edge">
<title>Show Animals&#39; Board House&#45;&#45;B2F Passage</title>
<path fill="none" stroke="#000000" d="M424,-663.8314C424,-653 424,-639.2876 424,-628.4133"/>
</g>
<!-- Pier -->
<g id="node22" class="node">
<title>Pier</title>
<polygon fill="none" stroke="#000000" points="554,-196 500,-196 500,-160 554,-160 554,-196"/>
<text text-anchor="middle" x="527" y="-173.8" font-family="Times,serif" font-size="14.00" fill="#000000">Pier</text>
</g>
<!-- Show Animals&#39; Board House&#45;&#45;Pier -->
<g id="edge18" class="edge">
<title>Show Animals&#39; Board House&#45;&#45;Pier</title>
<path fill="none" stroke="#000000" d="M517.5163,-682C534.5989,-682 547.2381,-682 547.2381,-682 547.2381,-682 547.2381,-286.5922 547.2381,-196.2354"/>
</g>
<!-- B6F East Passage -->
<g id="node8" class="node">
<title>B6F East Passage</title>
<polygon fill="none" stroke="#000000" points="156.5381,-772 41.4619,-772 41.4619,-736 156.5381,-736 156.5381,-772"/>
<text text-anchor="middle" x="99" y="-749.8" font-family="Times,serif" font-size="14.00" fill="#000000">B6F East Passage</text>
</g>
<!-- Stairwell (EotR) -->
<g id="node9" class="node">
<title>Stairwell (EotR)</title>
<polygon fill="none" stroke="#000000" points="152.1425,-700 43.8575,-700 43.8575,-664 152.1425,-664 152.1425,-700"/>
<text text-anchor="middle" x="98" y="-677.8" font-family="Times,serif" font-size="14.00" fill="#000000">Stairwell (EotR)</text>
</g>
<!-- B6F East Passage&#45;&#45;Stairwell (EotR) -->
<g id="edge22" class="edge">
<title>B6F East Passage&#45;&#45;Stairwell (EotR)</title>
<path fill="none" stroke="#000000" d="M98,-735.8314C98,-725 98,-711.2876 98,-700.4133"/>
</g>
<!-- University Sewers (left) -->
<g id="node10" class="node">
<title>University Sewers (left)</title>
<polygon fill="none" stroke="#000000" points="171.5002,-628 20.4998,-628 20.4998,-592 171.5002,-592 171.5002,-628"/>
<text text-anchor="middle" x="96" y="-605.8" font-family="Times,serif" font-size="14.00" fill="#000000">University Sewers (left)</text>
</g>
<!-- Stairwell (EotR)&#45;&#45;University Sewers (left) -->
<g id="edge23" class="edge">
<title>Stairwell (EotR)&#45;&#45;University Sewers (left)</title>
<path fill="none" stroke="#000000" d="M98,-663.8314C98,-653 98,-639.2876 98,-628.4133"/>
</g>
<!-- 1F Examination Room -->
<g id="node11" class="node">
<title>1F Examination Room</title>
<polygon fill="none" stroke="#000000" points="159.5547,-556 16.4453,-556 16.4453,-520 159.5547,-520 159.5547,-556"/>
<text text-anchor="middle" x="88" y="-533.8" font-family="Times,serif" font-size="14.00" fill="#000000">1F Examination Room</text>
</g>
<!-- University Sewers (left)&#45;&#45;1F Examination Room -->
<g id="edge24" class="edge">
<title>University Sewers (left)&#45;&#45;1F Examination Room</title>
<path fill="none" stroke="#000000" d="M90.2637,-591.8314C90.2637,-581 90.2637,-567.2876 90.2637,-556.4133"/>
</g>
<!-- 1F Apartment -->
<g id="node12" class="node">
<title>1F Apartment</title>
<polygon fill="none" stroke="#000000" points="138.1509,-484 43.8491,-484 43.8491,-448 138.1509,-448 138.1509,-484"/>
<text text-anchor="middle" x="91" y="-461.8" font-family="Times,serif" font-size="14.00" fill="#000000">1F Apartment</text>
</g>
<!-- 1F Examination Room&#45;&#45;1F Apartment -->
<g id="edge15" class="edge">
<title>1F Examination Room&#45;&#45;1F Apartment</title>
<path fill="none" stroke="#000000" d="M91,-519.8314C91,-509 91,-495.2876 91,-484.4133"/>
</g>
<!-- B5F Main Shaft -->
<g id="node13" class="node">
<title>B5F Main Shaft</title>
<polygon fill="none" stroke="#000000" points="148.2176,-412 41.7824,-412 41.7824,-376 148.2176,-376 148.2176,-412"/>
<text text-anchor="middle" x="95" y="-389.8" font-family="Times,serif" font-size="14.00" fill="#000000">B5F Main Shaft</text>
</g>
<!-- 1F Apartment&#45;&#45;B5F Main Shaft -->
<g id="edge16" class="edge">
<title>1F Apartment&#45;&#45;B5F Main Shaft</title>
<path fill="none" stroke="#000000" d="M91,-447.8314C91,-437 91,-423.2876 91,-412.4133"/>
</g>
<!-- University Sewers (right) -->
<g id="node14" class="node">
<title>University Sewers (right)</title>
<polygon fill="none" stroke="#000000" points="174.2851,-340 15.7149,-340 15.7149,-304 174.2851,-304 174.2851,-340"/>
<text text-anchor="middle" x="95" y="-317.8" font-family="Times,serif" font-size="14.00" fill="#000000">University Sewers (right)</text>
</g>
<!-- B5F Main Shaft&#45;&#45;University Sewers (right) -->
<g id="edge25" class="edge">
<title>B5F Main Shaft&#45;&#45;University Sewers (right)</title>
<path fill="none" stroke="#000000" d="M95,-375.8314C95,-365 95,-351.2876 95,-340.4133"/>
</g>
<!-- B1F Parking Garage -->
<g id="node15" class="node">
<title>B1F Parking Garage</title>
<polygon fill="none" stroke="#000000" points="173.5786,-268 42.4214,-268 42.4214,-232 173.5786,-232 173.5786,-268"/>
<text text-anchor="middle" x="108" y="-245.8" font-family="Times,serif" font-size="14.00" fill="#000000">B1F Parking Garage</text>
</g>
<!-- University Sewers (right)&#45;&#45;B1F Parking Garage -->
<g id="edge26" class="edge">
<title>University Sewers (right)&#45;&#45;B1F Parking Garage</title>
<path fill="none" stroke="#000000" d="M108,-303.8314C108,-293 108,-279.2876 108,-268.4133"/>
</g>
<!-- Linda Sewers -->
<g id="node16" class="node">
<title>Linda Sewers</title>
<polygon fill="none" stroke="#000000" points="157.0823,-196 64.9177,-196 64.9177,-160 157.0823,-160 157.0823,-196"/>
<text text-anchor="middle" x="111" y="-173.8" font-family="Times,serif" font-size="14.00" fill="#000000">Linda Sewers</text>
</g>
<!-- B1F Parking Garage&#45;&#45;Linda Sewers -->
<g id="edge17" class="edge">
<title>B1F Parking Garage&#45;&#45;Linda Sewers</title>
<path fill="none" stroke="#000000" d="M111,-231.8314C111,-221 111,-207.2876 111,-196.4133"/>
</g>
<!-- 1F Hospital Hall -->
<g id="node17" class="node">
<title>1F Hospital Hall</title>
<polygon fill="none" stroke="#000000" points="170.8231,-124 61.1769,-124 61.1769,-88 170.8231,-88 170.8231,-124"/>
<text text-anchor="middle" x="116" y="-101.8" font-family="Times,serif" font-size="14.00" fill="#000000">1F Hospital Hall</text>
</g>
<!-- Linda Sewers&#45;&#45;1F Hospital Hall -->
<g id="edge27" class="edge">
<title>Linda Sewers&#45;&#45;1F Hospital Hall</title>
<path fill="none" stroke="#000000" d="M111,-159.8314C111,-149 111,-135.2876 111,-124.4133"/>
</g>
<!-- Room 206 -->
<g id="node18" class="node">
<title>Room 206</title>
<polygon fill="none" stroke="#000000" points="153.2277,-52 78.7723,-52 78.7723,-16 153.2277,-16 153.2277,-52"/>
<text text-anchor="middle" x="116" y="-29.8" font-family="Times,serif" font-size="14.00" fill="#000000">Room 206</text>
</g>
<!-- 1F Hospital Hall&#45;&#45;Room 206 -->
<g id="edge20" class="edge">
<title>1F Hospital Hall&#45;&#45;Room 206</title>
<path fill="none" stroke="#000000" d="M116,-87.8314C116,-77 116,-63.2876 116,-52.4133"/>
</g>
<!-- B2F Passage&#45;&#45;1F Examination Room -->
<g id="edge14" class="edge">
<title>B2F Passage&#45;&#45;1F Examination Room</title>
<path fill="none" stroke="#000000" d="M379.8391,-613C353.5554,-613 325.2838,-613 325.2838,-613 325.2838,-613 325.2838,-538 325.2838,-538 325.2838,-538 229.6757,-538 159.8369,-538"/>
</g>
<!-- B2F Passage&#45;&#45;B5F Main Shaft -->
<g id="edge13" class="edge">
<title>B2F Passage&#45;&#45;B5F Main Shaft</title>
<path fill="none" stroke="#000000" d="M379.8893,-606C355.1098,-606 329.1117,-606 329.1117,-606 329.1117,-606 329.1117,-394 329.1117,-394 329.1117,-394 217.1963,-394 148.1236,-394"/>
</g>
<!-- B2F Passage&#45;&#45;B1F Parking Garage -->
<g id="edge12" class="edge">
<title>B2F Passage&#45;&#45;B1F Parking Garage</title>
<path fill="none" stroke="#000000" d="M379.8035,-599C356.6026,-599 332.9396,-599 332.9396,-599 332.9396,-599 332.9396,-250 332.9396,-250 332.9396,-250 240.0605,-250 173.6665,-250"/>
</g>
<!-- Locker Room (Flashback) -->
<g id="node20" class="node">
<title>Locker Room (Flashback)</title>
<polygon fill="none" stroke="#000000" points="540.4524,-556 377.5476,-556 377.5476,-520 540.4524,-520 540.4524,-556"/>
<text text-anchor="middle" x="459" y="-533.8" font-family="Times,serif" font-size="14.00" fill="#000000">Locker Room (Flashback)</text>
</g>
<!-- B2F Passage&#45;&#45;Locker Room (Flashback) -->
<g id="edge11" class="edge">
<title>B2F Passage&#45;&#45;Locker Room (Flashback)</title>
<path fill="none" stroke="#000000" d="M424,-591.8314C424,-581 424,-567.2876 424,-556.4133"/>
</g>
<!-- 1F R.P.D. Office&#45;&#45;Show Animals&#39; Board House -->
<g id="edge9" class="edge">
<title>1F R.P.D. Office&#45;&#45;Show Animals&#39; Board House</title>
<path fill="none" stroke="#000000" d="M317.9304,-820C335.0851,-820 349.5312,-820 349.5312,-820 349.5312,-820 349.5312,-737.4476 349.5312,-700.0411"/>
</g>
<!-- 1F R.P.D. Office&#45;&#45;B6F East Passage -->
<g id="edge21" class="edge">
<title>1F R.P.D. Office&#45;&#45;B6F East Passage</title>
<path fill="none" stroke="#000000" d="M262,-807.8314C262,-786.502 262,-754 262,-754 262,-754 203.7775,-754 156.9267,-754"/>
</g>
<!-- Pier&#45;&#45;1F Hospital Hall -->
<g id="edge19" class="edge">
<title>Pier&#45;&#45;1F Hospital Hall</title>
<path fill="none" stroke="#000000" d="M499.7142,-178C415.2888,-178 163.976,-178 163.976,-178 163.976,-178 163.976,-145.498 163.976,-124.1686"/>
</g>
</g>
</svg>
